{
  "accessors": [
    {
      "bufferView": 2,
      "componentType": 5126,
      "count": 10139,
      "max": [
        7.0088582038879395,
        -9.66262435913086,
        2.4587900638580322
      ],
      "min": [
        -3.6334469318389893,
        -15.106192588806152,
        -1.8840969800949097
      ],
      "type": "VEC3"
    },
    {
      "bufferView": 2,
      "byteOffset": 121668,
      "componentType": 5126,
      "count": 10139,
      "max": [
        0.9999898672103882,
        0.9999449849128723,
        0.9998382329940796
      ],
      "min": [
        -0.999783456325531,
        -0.9998725056648254,
        -0.9999715089797974
      ],
      "type": "VEC3"
    },
    {
      "bufferView": 1,
      "componentType": 5126,
      "count": 10139,
      "max": [
        0.9980400204658508,
        0.9511600136756897
      ],
      "min": [
        0.0019499999471008778,
        0.0019499999471008778
      ],
      "type": "VEC2"
    },
    {
      "bufferView": 0,
      "componentType": 5125,
      "count": 59994,
      "type": "SCALAR"
    }
  ],
  "asset": {
    "extras": {
      "author": "Przemek Gesicki - DigitWorlds (https://sketchfab.com/DigitWorlds)",
      "license": "CC-BY-NC-4.0 (http://creativecommons.org/licenses/by-nc/4.0/)",
      "source": "https://sketchfab.com/3d-models/nike-zoom-pegasus-shoe-by-digitworldscom-155fe25d6c9f4958b07df9f2d9b8833c",
      "title": "Nike Zoom Pegasus Shoe by DigitWorlds.com -"
    },
    "generator": "Sketchfab-12.66.0",
    "version": "2.0"
  },
  "bufferViews": [
    {
      "buffer": 0,
      "byteLength": 239976,
      "name": "floatBufferViews",
      "target": 34963
    },
    {
      "buffer": 0,
      "byteLength": 81112,
      "byteOffset": 239976,
      "byteStride": 8,
      "name": "floatBufferViews",
      "target": 34962
    },
    {
      "buffer": 0,
      "byteLength": 243336,
      "byteOffset": 321088,
      "byteStride": 12,
      "name": "floatBufferViews",
      "target": 34962
    }
  ],
  "buffers": [
    {
      "byteLength": 564424,
      "uri": "scene.bin"
    }
  ],
  "extensionsUsed": [
    "KHR_materials_unlit"
  ],
  "images": [
    {
      "uri": "textures/material_baseColor.jpeg"
    }
  ],
  "materials": [
    {
      "doubleSided": true,
      "extensions": {
        "KHR_materials_unlit": {}
      },
      "name": "material",
      "pbrMetallicRoughness": {
        "baseColorTexture": {
          "index": 0
        },
        "metallicFactor": 0.0
      }
    }
  ],
  "meshes": [
    {
      "name": "Object_0",
      "primitives": [
        {
          "attributes": {
            "NORMAL": 1,
            "POSITION": 0,
            "TEXCOORD_0": 2
          },
          "indices": 3,
          "material": 0,
          "mode": 4
        }
      ]
    }
  ],
  "nodes": [
    {
      "children": [
        1
      ],
      "matrix": [
        0.9977879524230957,
        -0.06619182229042053,
        -0.006155443843454137,
        0.0,
        0.06205122172832489,
        0.8941300511360167,
        0.44348740577697776,
        0.0,
        -0.02385147288441658,
        -0.4428883492946627,
        0.8962594866752623,
        0.0,
        0.7790544629096985,
        11.599578857421871,
        17.629598617553714,
        1.0
      ],
      "name": "Sketchfab_model"
    },
    {
      "children": [
        2
      ],
      "name": "fin.obj.cleaner.materialmerger.gles"
    },
    {
      "mesh": 0,
      "name": "Object_2"
    }
  ],
  "samplers": [
    {
      "magFilter": 9729,
      "minFilter": 9987,
      "wrapS": 10497,
      "wrapT": 10497
    }
  ],
  "scene": 0,
  "scenes": [
    {
      "name": "Sketchfab_Scene",
      "nodes": [
        0
      ]
    }
  ],
  "textures": [
    {
      "sampler": 0,
      "source": 0
    }
  ]
}
